<svg xmlns="http://www.w3.org/2000/svg" width="800" height="200" viewBox="0 0 400 100">
  <defs>
    <style>
      .cls-1 {
        fill: #001017;
      }

      .cls-2 {
        fill: #f5f9fb;
        fill-rule: evenodd;
      }
    </style>
  </defs>
  <rect class="cls-1" x="3" y="27" width="400" height="5"/>
  <rect class="cls-1" x="3" y="30" width="37" height="40"/>
  <path id="Bitmaskers" class="cls-2" d="M20.834,65.89Q24.271,66,25.149,66q6.448,0,9.744-3.331a7.8,7.8,0,0,0,2.489-5.58,6,6,0,0,0-1.636-4.307,9.21,9.21,0,0,0-3.533-2.355,1.176,1.176,0,0,1-1-.891,1.573,1.573,0,0,1,.83-1.082A5.846,5.846,0,0,0,33.9,46.234a6.366,6.366,0,0,0,.688-2.854,5.612,5.612,0,0,0-2.324-4.71,8.81,8.81,0,0,0-3.355-1.538,22.912,22.912,0,0,0-5.085-.456q-1.328,0-2.964.042-5.216.127-6.994,0.127-2.418,0-4.5-.085Q8.1,36.7,7.3,36.7a4.425,4.425,0,0,0-2.406.594,1.762,1.762,0,0,0-.936,1.528,1.951,1.951,0,0,0,1.565,1.74,2.921,2.921,0,0,1,1.719,1.347A9.512,9.512,0,0,1,7.6,45.2q0,6.768-.45,11.393a28.157,28.157,0,0,1-.569,3.872A2.2,2.2,0,0,1,5.637,61.8a8,8,0,0,0-1.494,1.061,1.337,1.337,0,0,0-.308.934,1.951,1.951,0,0,0,.83,1.57,3.675,3.675,0,0,0,2.3.658q0.592,0,1.968-.106,1.541-.085,4.884-0.127l3.177-.021q0.711,0.021,3.841.127h0ZM18.949,41.248a1.376,1.376,0,0,1,1.15-.414,2.89,2.89,0,0,1,2.418,1.093,4.913,4.913,0,0,1,.854,3.087,4.572,4.572,0,0,1-.83,3.023A3.226,3.226,0,0,1,19.957,49a1.169,1.169,0,0,1-1.031-.424,2.666,2.666,0,0,1-.3-1.464v-4.37A2.549,2.549,0,0,1,18.949,41.248ZM19.032,53.5a2.029,2.029,0,0,1,1.446-.4q4.03,0,4.031,4.71,0,3.777-3.6,3.776a1.832,1.832,0,0,1-1.826-.912,9.762,9.762,0,0,1-.45-3.692V54.964A2.059,2.059,0,0,1,19.032,53.5Zm28.9-16.591a12.189,12.189,0,0,0-3.473.965,1.627,1.627,0,0,0-.984,1.453,1.433,1.433,0,0,0,.332.976,5.629,5.629,0,0,0,1.3.955,3.29,3.29,0,0,1,1.588,1.57q0.616,1.527.616,6.959a71.609,71.609,0,0,1-.45,10.269,2.5,2.5,0,0,1-1.375,1.74q-1.518.827-1.517,1.782,0,2.631,7.729,2.631a36.782,36.782,0,0,0,7.658-.679q2.892-.636,2.893-2.334a2.046,2.046,0,0,0-1.565-1.846,4.41,4.41,0,0,1-1.2-.711,1.988,1.988,0,0,1-.51-0.944q-0.451-1.93-.45-10.035a38.546,38.546,0,0,1,.344-6.45A2.75,2.75,0,0,1,60.3,41.068a7.07,7.07,0,0,0,1.624-.9,1.223,1.223,0,0,0,.32-0.923q0-1.867-3.224-2.44a29.217,29.217,0,0,0-5.1-.424,34.006,34.006,0,0,0-6,.53h0Zm29.027-.17q-0.818-.084-2.1-0.318a5.469,5.469,0,0,0-1.091-.127q-1.755,0-3.556,2.164a11.461,11.461,0,0,0-1.778,2.917,7.545,7.545,0,0,0-.664,2.9,3.03,3.03,0,0,0,.83,2.2,2.807,2.807,0,0,0,2.11.859,4.169,4.169,0,0,0,2.347-.827,12.894,12.894,0,0,0,2.608-2.864,2.374,2.374,0,0,1,1.8-1.188,1.131,1.131,0,0,1,1.091.806,7.842,7.842,0,0,1,.332,2.716q0,2.716-.166,6.418t-0.356,5.357a8.246,8.246,0,0,1-.557,2.525,1.827,1.827,0,0,1-1.245.891,16.914,16.914,0,0,0-1.683.509,1.5,1.5,0,0,0-.853,1.358q0,1.613,2.395,2.334a32.185,32.185,0,0,0,8.725.87,25.006,25.006,0,0,0,7.1-.743q2.312-.742,2.312-2.27a1.566,1.566,0,0,0-.462-1.2,5.632,5.632,0,0,0-1.743-.923,2.817,2.817,0,0,1-1.612-1.273,6.118,6.118,0,0,1-.427-2.652V45.29a4.566,4.566,0,0,1,.379-2.164,1.335,1.335,0,0,1,1.257-.658,1.58,1.58,0,0,1,1.091.4,8.171,8.171,0,0,1,1.233,1.718A6.8,6.8,0,0,0,96.1,46.658a3.8,3.8,0,0,0,2.181.626,3.989,3.989,0,0,0,2.276-.636,3.017,3.017,0,0,0,1.257-2.694A8.931,8.931,0,0,0,100,38.713q-1.814-2.546-3.734-2.546a5.5,5.5,0,0,0-1.257.17,17.009,17.009,0,0,1-3.675.488H78.839A18.444,18.444,0,0,1,76.954,36.74Zm56.091,17a1.679,1.679,0,0,1,1.28-.817,0.72,0.72,0,0,1,.747.53,8.649,8.649,0,0,1,.178,2.228,28.417,28.417,0,0,1-.225,4.328,2.6,2.6,0,0,1-.842,1.718,11.11,11.11,0,0,0-1.47,1.2,1.234,1.234,0,0,0-.285.838q0,1.379,2.182,1.952a25.77,25.77,0,0,0,5.974.509q2.608,0,3.865-.106a11.862,11.862,0,0,0,2.394-.446q2.205-.615,2.205-2.1a1.533,1.533,0,0,0-.853-1.358,6.64,6.64,0,0,1-1.529-1.082,2.9,2.9,0,0,1-.439-1.358,69.451,69.451,0,0,1-.569-9.483,39.629,39.629,0,0,1,.545-7.128,3.265,3.265,0,0,1,1.375-2.143,4.1,4.1,0,0,0,1.067-.9,1.682,1.682,0,0,0,.261-0.986q0-2.737-6.71-2.737-3.817,0-5.263.912a7.475,7.475,0,0,0-2.3,2.822q-0.189.34-.806,1.464l-3.343,5.834a4.8,4.8,0,0,1-.865,1.188,1.25,1.25,0,0,1-.842.318,1.175,1.175,0,0,1-.853-0.3,10.288,10.288,0,0,1-1.115-1.634l-4.931-8.126a8.731,8.731,0,0,0-1.019-1.485,2.48,2.48,0,0,0-.973-0.573,14.337,14.337,0,0,0-4.291-.446,26.389,26.389,0,0,0-2.952.2,20.659,20.659,0,0,0-2.785.477,3.526,3.526,0,0,0-1.672.87,1.868,1.868,0,0,0-.628,1.358q0,1.146,1.683,1.867a5.642,5.642,0,0,1,1.032.552,1.854,1.854,0,0,1,.486.636,12.366,12.366,0,0,1,.592,4.689q0,2.758-.189,6.63t-0.4,5.569a7.63,7.63,0,0,1-.463,2.143,1.9,1.9,0,0,1-1.055.87,6.983,6.983,0,0,0-1.529.8,1.1,1.1,0,0,0-.3.859q0,2.313,5.737,2.312,6.8,0,6.8-2.376a1.271,1.271,0,0,0-.783-1.252,9.967,9.967,0,0,1-1.482-.764,1.448,1.448,0,0,1-.438-0.679,12.263,12.263,0,0,1-.237-2.991q0-2.121.166-4.625,0.07-1.124.829-1.124,0.712,0,1.352,1.315l3.129,6.3q0.617,1.252,1.553,2.864a13.288,13.288,0,0,0,1.2,1.867,1.268,1.268,0,0,0,.924.4,1.325,1.325,0,0,0,1-.5,10,10,0,0,0,1.186-1.941L131.2,57A24.988,24.988,0,0,1,133.045,53.744Zm44.842-15.965a7.4,7.4,0,0,0-4.576-1.676,5.969,5.969,0,0,0-4.172,1.485,3.171,3.171,0,0,0-1.008,1.39,10.068,10.068,0,0,0-.249,2.535,11.045,11.045,0,0,1-.652,3.511,48.343,48.343,0,0,1-2.478,5.4l-3.342,6.556a20.157,20.157,0,0,1-2.265,3.766,5.167,5.167,0,0,1-2.335,1.368,3.372,3.372,0,0,0-1.316.658,1.363,1.363,0,0,0-.367,1.018,1.922,1.922,0,0,0,1.659,1.952,24.62,24.62,0,0,0,5.643.467q6.757,0,6.757-2.525a1.59,1.59,0,0,0-1.446-1.527,6.709,6.709,0,0,1-1.316-.456,0.7,0.7,0,0,1-.2-0.6,2.311,2.311,0,0,1,.285-1.061,1.765,1.765,0,0,1,.664-0.764,11.377,11.377,0,0,1,3.769-.339,50.483,50.483,0,0,1,5.809.255q1.92,0.255,1.921,1.676a1.26,1.26,0,0,1-1.115,1.146,3.515,3.515,0,0,0-1.363.647,1.3,1.3,0,0,0-.368.987,1.779,1.779,0,0,0,.7,1.411,3.833,3.833,0,0,0,1.885.774,56.571,56.571,0,0,0,7.942.4,24.337,24.337,0,0,0,6.828-.679q2.086-.679,2.087-2.228,0-1.315-1.707-1.549a2.518,2.518,0,0,1-1.3-.5,6.008,6.008,0,0,1-1.067-1.559l-4.481-8.592q-5.786-11.053-8.82-13.345h0Zm-8.772,15.487a11.061,11.061,0,0,1,1-2.588q0.593-1.315.687-1.506,0.57-1.421,1.423-1.421a1.274,1.274,0,0,1,.9.424,11.3,11.3,0,0,1,1.233,1.676q1.778,2.737,1.778,3.437,0,0.509-1.281.509h-4.647q-1.09,0-1.09-.53h0Zm36.311-14.045a9.348,9.348,0,0,0-2.75,3.066,7.477,7.477,0,0,0-.972,3.639q0,3.777,3.746,6.747a15.832,15.832,0,0,0,3.319,2,39.836,39.836,0,0,0,5.169,1.75,9.11,9.11,0,0,1,2.774,1.146,1.779,1.779,0,0,1,.853,1.464,1.715,1.715,0,0,1-1.09,1.5,6.024,6.024,0,0,1-2.845.583,10.28,10.28,0,0,1-3.948-.785,6.367,6.367,0,0,1-2.786-1.973,31.353,31.353,0,0,0-2.347-2.991,2.452,2.452,0,0,0-1.731-.827,1.9,1.9,0,0,0-1.493.679,2.284,2.284,0,0,0-.474,1.57,11.928,11.928,0,0,0,.912,4.445,5.891,5.891,0,0,0,2.051,2.96,16.436,16.436,0,0,0,4.86,1.517,33.964,33.964,0,0,0,6.4.647q6.8,0,11.024-2.928a8.655,8.655,0,0,0,4.126-7.383q0-5.113-6.046-7.744a57.659,57.659,0,0,0-6.283-1.888q-3.627-.933-3.627-2.779a1.772,1.772,0,0,1,.794-1.506,3.554,3.554,0,0,1,2.122-.573,8.806,8.806,0,0,1,5.595,2.376,26.35,26.35,0,0,0,2.608,2.016,3.079,3.079,0,0,0,1.541.339,2.6,2.6,0,0,0,1.933-.817,2.767,2.767,0,0,0,.794-2,7.057,7.057,0,0,0-1.767-4.286q-1.765-2.248-3.354-2.249a2.509,2.509,0,0,0-.806.127,7.816,7.816,0,0,1-1.423.382,3.1,3.1,0,0,1-.759-0.127,25.559,25.559,0,0,0-6.4-1.082,15.726,15.726,0,0,0-9.721,2.992h0Zm60.971,2.3a5.787,5.787,0,0,1,1.885-.265,11.006,11.006,0,0,0,2.3-.17,2.156,2.156,0,0,0,1.565-2.015q0-1.719-2.158-2.249a25.054,25.054,0,0,0-5.4-.424,22.44,22.44,0,0,0-6.473.647,2.327,2.327,0,0,0-1.9,2.217,1.967,1.967,0,0,0,.309.976,2.63,2.63,0,0,1,.45,1.146q0,0.721-1.778,2.694a28.126,28.126,0,0,1-2.051,2.122,1.635,1.635,0,0,1-1.055.424q-0.9,0-.9-1.782a8.052,8.052,0,0,1,.32-2.206,2.908,2.908,0,0,1,.7-1.421,6.324,6.324,0,0,0,1.292-1.093,1.682,1.682,0,0,0,.249-0.986,2.15,2.15,0,0,0-1.612-2.122,17.77,17.77,0,0,0-5.525-.637,36.057,36.057,0,0,0-6.069.424,6.421,6.421,0,0,0-2.655.934,1.934,1.934,0,0,0-.83,1.634,2.08,2.08,0,0,0,1.327,1.888,3.324,3.324,0,0,1,1.162.87,3.664,3.664,0,0,1,.522,1.464,48.769,48.769,0,0,1,.5,8.423,41.624,41.624,0,0,1-.475,7.383,5.566,5.566,0,0,1-.509,1.538,2.549,2.549,0,0,1-.913.838,2.3,2.3,0,0,0-1.423,1.931,1.788,1.788,0,0,0,.534,1.262,2.782,2.782,0,0,0,1.387.774,31.314,31.314,0,0,0,6.4.467,28.272,28.272,0,0,0,7.018-.6q2.087-.6,2.086-2a2.147,2.147,0,0,0-1.28-1.846q-0.593-.361-0.759-0.467a3.187,3.187,0,0,1-.9-2.61q0-2.312,1.376-2.312a1.7,1.7,0,0,1,.983.392,23.418,23.418,0,0,1,1.862,1.666,63.2,63.2,0,0,1,4.884,5.219,10.308,10.308,0,0,0,1.695,1.782,2.568,2.568,0,0,0,1.458.361h8.986q3.579,0,3.58-2.249a2.229,2.229,0,0,0-.534-1.549,4.677,4.677,0,0,0-1.814-1.082,6.408,6.408,0,0,1-1.351-.69,16.4,16.4,0,0,1-1.636-1.559l-8.867-9.187a9.194,9.194,0,0,1-1.2-1.443,2.031,2.031,0,0,1-.32-1.061,3.172,3.172,0,0,1,1.4-2.164l2.537-2.185A6.333,6.333,0,0,1,266.4,41.524Zm17.762-4.508a2.141,2.141,0,0,0-1.186.7,1.818,1.818,0,0,0-.45,1.209,1.575,1.575,0,0,0,1.351,1.612,5.394,5.394,0,0,1,1.186.4,1.552,1.552,0,0,1,.521.594q1.138,2.143,1.138,10.332a37.918,37.918,0,0,1-.782,8.635,2.866,2.866,0,0,1-.534,1.188,2.583,2.583,0,0,1-1.055.679,4.812,4.812,0,0,0-1.3.7,1.2,1.2,0,0,0-.284.891,1.561,1.561,0,0,0,.664,1.347,3.167,3.167,0,0,0,1.873.477h20.1a30.187,30.187,0,0,1,4.054.318,9.557,9.557,0,0,0,1.3.127,1.56,1.56,0,0,0,.9-0.244,4.545,4.545,0,0,0,.9-0.965,15.062,15.062,0,0,0,1.8-3.395,9.273,9.273,0,0,0,.735-3.182,2.915,2.915,0,0,0-.652-1.941,2.063,2.063,0,0,0-1.648-.774,2.162,2.162,0,0,0-1.387.424,5.542,5.542,0,0,0-1.2,1.655,6.348,6.348,0,0,1-2.94,2.96,13.542,13.542,0,0,1-5.358.817,15.335,15.335,0,0,1-3.284-.244,1.44,1.44,0,0,1-1.174-.881,12.059,12.059,0,0,1-.32-2.09q-0.154-1.58-.154-2.578a4.465,4.465,0,0,1,.391-2.238,1.606,1.606,0,0,1,1.458-.6q2.775,0,3.13,2.4a3.372,3.372,0,0,0,.474,1.538,1.388,1.388,0,0,0,1.114.371,2.085,2.085,0,0,0,1.945-1.167,11.474,11.474,0,0,0,1.161-5.495,15.163,15.163,0,0,0-.343-3.257,5.512,5.512,0,0,0-.842-2.175,2.091,2.091,0,0,0-1.66-.827,1.857,1.857,0,0,0-1.162.382,1.784,1.784,0,0,0-.652.8,8.518,8.518,0,0,0-.343,1.687,1.982,1.982,0,0,1-.569,1.326,2.271,2.271,0,0,1-1.447.371,5.872,5.872,0,0,1-2.489-.308,1.857,1.857,0,0,1-.474-1.581q0-3.225.059-4.01a2.6,2.6,0,0,1,.368-1.252q0.593-.87,3.319-0.87a20.358,20.358,0,0,1,5.251.477,4.991,4.991,0,0,1,2.644,1.9,5.586,5.586,0,0,0,1.173,1.283,2.223,2.223,0,0,0,1.221.286,2.188,2.188,0,0,0,1.79-.8,3.33,3.33,0,0,0,.652-2.175,7.178,7.178,0,0,0-1.564-4.667A2.756,2.756,0,0,0,309.408,36a3.378,3.378,0,0,0-.782.127,19,19,0,0,1-3.307.562q-1.7.138-5.394,0.138H287.739a21.447,21.447,0,0,0-3.58.191h0ZM339.418,54.5a6.314,6.314,0,0,1,1.387,2.843,39.42,39.42,0,0,0,1.482,4.625,8.422,8.422,0,0,0,1.529,2.461q1.992,2.185,6.615,2.185a14.566,14.566,0,0,0,5.453-.827,3.876,3.876,0,0,0,1.47-1.05,2.061,2.061,0,0,0,.569-1.326,1.511,1.511,0,0,0-.308-0.923,1.417,1.417,0,0,0-.759-0.541,4.439,4.439,0,0,1-1.873-.8,3.565,3.565,0,0,1-.616-1.814,11.755,11.755,0,0,0-1.66-5.007,6.905,6.905,0,0,0-3.651-2.44,1.313,1.313,0,0,1-1.162-1,1.008,1.008,0,0,1,.759-0.806,6.446,6.446,0,0,0,2.869-2.408,6.378,6.378,0,0,0,1.043-3.554,6.217,6.217,0,0,0-2.987-5.474,14.971,14.971,0,0,0-8.393-2.185q-0.9,0-3.154.148-3.555.255-5.69,0.255-1.279,0-1.873-.042-3.129-.212-3.912-0.212a13.135,13.135,0,0,0-2.8.233,4.314,4.314,0,0,0-1.885.859,1.76,1.76,0,0,0-.676,1.369,1.338,1.338,0,0,0,.356.965,4.5,4.5,0,0,0,1.4.817,2.456,2.456,0,0,1,1.422,1.549,15.836,15.836,0,0,1,.332,4.01q0,9.293-.119,10.8a9.622,9.622,0,0,1-.509,2.9,3.268,3.268,0,0,1-1.411,1.453,5.3,5.3,0,0,0-1.185.859,1.22,1.22,0,0,0-.261.817q0,2.97,8.772,2.97a26.629,26.629,0,0,0,6.7-.583q1.979-.583,1.98-1.984a2.1,2.1,0,0,0-1.423-1.846,3.924,3.924,0,0,1-.9-0.573,1.448,1.448,0,0,1-.356-0.658,18.072,18.072,0,0,1-.379-4.2,6.257,6.257,0,0,1,.249-2.27,1.171,1.171,0,0,1,1.15-.488A3.5,3.5,0,0,1,339.418,54.5Zm-3.354-13.069a1.8,1.8,0,0,1,1.3-.382q3.248,0,3.248,4.095a4.277,4.277,0,0,1-.949,3.087,4.108,4.108,0,0,1-3.034.965,1.442,1.442,0,0,1-1.008-.255,1.5,1.5,0,0,1-.249-1.018V47.729l0.261-4.943A2.054,2.054,0,0,1,336.064,41.428Zm32.157-2.206a9.348,9.348,0,0,0-2.75,3.066,7.477,7.477,0,0,0-.972,3.639q0,3.777,3.746,6.747a15.832,15.832,0,0,0,3.319,2,39.836,39.836,0,0,0,5.169,1.75,9.11,9.11,0,0,1,2.774,1.146,1.779,1.779,0,0,1,.853,1.464,1.714,1.714,0,0,1-1.09,1.5,6.022,6.022,0,0,1-2.845.583,10.28,10.28,0,0,1-3.948-.785,6.367,6.367,0,0,1-2.786-1.973,31.178,31.178,0,0,0-2.347-2.991,2.452,2.452,0,0,0-1.731-.827,1.9,1.9,0,0,0-1.493.679,2.284,2.284,0,0,0-.474,1.57,11.928,11.928,0,0,0,.912,4.445,5.9,5.9,0,0,0,2.051,2.96,16.434,16.434,0,0,0,4.861,1.517,33.954,33.954,0,0,0,6.4.647q6.8,0,11.025-2.928a8.656,8.656,0,0,0,4.125-7.383q0-5.113-6.046-7.744a57.659,57.659,0,0,0-6.283-1.888q-3.627-.933-3.627-2.779a1.772,1.772,0,0,1,.794-1.506,3.554,3.554,0,0,1,2.122-.573,8.806,8.806,0,0,1,5.6,2.376,26.475,26.475,0,0,0,2.608,2.016,3.079,3.079,0,0,0,1.541.339,2.6,2.6,0,0,0,1.933-.817,2.767,2.767,0,0,0,.794-2,7.061,7.061,0,0,0-1.766-4.286q-1.767-2.248-3.355-2.249a2.509,2.509,0,0,0-.806.127,7.816,7.816,0,0,1-1.423.382,3.1,3.1,0,0,1-.759-0.127,25.559,25.559,0,0,0-6.4-1.082,15.726,15.726,0,0,0-9.721,2.992h0ZM3.195,76.487V71.035H398.848v5.452H3.195Z"/>
</svg>
